<svg id="filled_outline" height="512" viewBox="0 0 512 512" width="512" xmlns="http://www.w3.org/2000/svg" data-name="filled outline"><path d="m296 40-40-16-40 16v448h80z" fill="#603714"/><path d="m232 33.6-16 6.4v448h16z" fill="#351c0a"/><path d="m392 392h-368l48-160-48-160h368l96 160z" fill="#b56b29"/><g fill="#603714"><path d="m40 384 48-160-45.6-152h-18.4l48 160-48 160h368l4.8-8z"/><path d="m355.182 163.415a8 8 0 0 1 -10.575 4.171l-54.822-24.117a8 8 0 0 1 -4.2-10.5 8 8 0 0 1 10.5-4.2l54.962 24.179a8 8 0 0 1 4.132 10.474z"/><rect height="281.345" rx="8" transform="matrix(.881 -.472 .472 .881 -73.245 164.17)" width="15.999" x="282.429" y="87.327"/><rect height="161.206" rx="8" transform="matrix(.932 -.362 .362 .932 -79.056 112.839)" width="16" x="253.214" y="186.519"/></g><path d="m351.052 340.223-55.052-102.764v-47.424l50.2-14.343a8 8 0 0 0 .953-15.046l-56-24a8 8 0 0 0 -11.153 7.354v63.593l-48.948-91.37a8 8 0 0 0 -14.1 0l-120 224a8 8 0 0 0 7.048 11.777h240a8 8 0 0 0 7.052-11.777zm-55.052-184.091 24.167 10.357-24.167 6.911zm-123.689 179.868 33.46-75.286-12.548 75.286zm54.789-105.95 41.205 105.95h-58.861zm58.372 105.95-54.016-138.9a8 8 0 0 0 -14.765-.35l-61.891 139.25h-37.44l106.64-199.059 106.639 199.059z" fill="#f4e0bd"/><g fill="#351c0a"><path d="m112 144h-66.4l4.8 16h61.6z"/><path d="m128 144h16v16h-16z"/><path d="m64 112h112v16h-112z"/><path d="m376 336h49.6l9.6-16h-59.2z"/><path d="m360 280v16h89.6l9.6-16z"/><path d="m224 392h72v16h-72z"/></g><path d="m296 237.459v-47.424l50.2-14.343a8 8 0 0 0 .953-15.046l-56-24a8 8 0 0 0 -11.153 7.354v63.593l-48.948-91.37a8 8 0 0 0 -14.1 0l-120 224a8 8 0 0 0 7.048 11.777h240a8 8 0 0 0 7.052-11.777zm0-81.327 24.167 10.357-24.167 6.911zm-68.9 73.918 41.205 105.95h-58.861zm-33.877 105.95h-20.913l33.461-75.286zm92.249 0-54.016-138.9a8 8 0 0 0 -14.765-.35l-61.891 139.25h-37.44l106.64-199.059 106.639 199.059z"/><path d="m398.86 67.884a8 8 0 0 0 -6.86-3.884h-88v-24a8 8 0 0 0 -5.029-7.428l-40-16a8 8 0 0 0 -5.942 0l-40 16a8 8 0 0 0 -5.029 7.428v24h-184a8 8 0 0 0 -7.663 10.3l47.31 157.7-47.31 157.7a8 8 0 0 0 7.663 10.3h184v88a8 8 0 0 0 8 8h80a8 8 0 0 0 8-8v-88h88a8 8 0 0 0 6.86-3.884l96-160a8 8 0 0 0 0-8.232zm-174.86-22.468 32-12.8 32 12.8v18.584h-64zm64 434.584h-64v-80h64zm161.871-200h-89.871v16h80.271l-14.4 24h-49.871v16h40.271l-28.8 48h-352.719l44.911-149.7a8.016 8.016 0 0 0 0-4.6l-20.911-69.7h53.248v-16h-58.048l-19.2-64h352.719l91.2 152z"/><path d="m128 144h16v16h-16z"/><path d="m64 112h112v16h-112z"/></svg>